<svg xmlns="http://www.w3.org/2000/svg" viewBox="0 0 51.02 51.02"><defs><style>.cls-1{fill:#5e6257;}</style></defs><g id="Слой_2" data-name="Слой 2"><g id="Слой_1-2" data-name="Слой 1"><path class="cls-1" d="M34.53,9.58h-18a6.92,6.92,0,0,0-6.91,6.91v18a6.92,6.92,0,0,0,6.91,6.91h18a6.92,6.92,0,0,0,6.91-6.91v-18A6.92,6.92,0,0,0,34.53,9.58Zm-3.1.85c5,4.19,1.76,6.35,1.55,6.19,0-1.66-.08-2.28-.79-3.11.2,1.64.62,2.66-.15,3.78C30,17,30.07,12.76,31.43,10.43ZM25.51,34.37a8.86,8.86,0,1,1,8.86-8.86A8.87,8.87,0,0,1,25.51,34.37Zm8.27-16.94a4.48,4.48,0,0,1,2.61-.53c-.55-.47-1.46-.28-2.51-.06.85-1.14,2.18-2.22,5.07.16C37.75,18.42,35.06,19,33.78,17.43Z"/><path class="cls-1" d="M25.51,18.6a6.91,6.91,0,1,0,6.91,6.91A6.92,6.92,0,0,0,25.51,18.6Z"/><path class="cls-1" d="M35.41,0H15.61A15.61,15.61,0,0,0,0,15.61v19.8A15.61,15.61,0,0,0,15.61,51h19.8A15.61,15.61,0,0,0,51,35.41V15.61A15.61,15.61,0,0,0,35.41,0Zm8,34.53a8.86,8.86,0,0,1-8.86,8.86h-18a8.87,8.87,0,0,1-8.86-8.86v-18a8.88,8.88,0,0,1,8.86-8.86h18a8.87,8.87,0,0,1,8.86,8.86Z"/></g></g></svg>