<svg xmlns="http://www.w3.org/2000/svg" viewBox="0 0 51.02 51.02"><defs><style>.cls-1{fill:#5e6257;}</style></defs><g id="Слой_2" data-name="Слой 2"><g id="Слой_1-2" data-name="Слой 1"><path class="cls-1" d="M35.41,0H15.61A15.61,15.61,0,0,0,0,15.61v19.8A15.61,15.61,0,0,0,15.61,51h19.8A15.61,15.61,0,0,0,51,35.41V15.61A15.61,15.61,0,0,0,35.41,0ZM16.64,38.45C1.69,20,14.76,14.51,15.4,15.22a17.71,17.71,0,0,0-.69,8.39A17.13,17.13,0,0,0,16,28c.22-1.64.5-3.34.84-5.09a89.46,89.46,0,0,1,2.36-9.4C26.32,16.05,23.13,31.07,16.64,38.45Zm26.15-1.34c-.46.74-5.69-.18-9.64-3.51-1.16-1-1.93-1.94-2.92-1.78-1.56.26-2.4,3.11-2.88,5.61A26.41,26.41,0,0,1,25,27.53a27.16,27.16,0,0,1,4-14.95,48.51,48.51,0,0,1,1.39,10.69c0,1.07,0,2.11,0,3.12A13.72,13.72,0,0,1,33,22.07a14.51,14.51,0,0,1,8.24-4.35c-3.11,2.64-6.17,6.17-5.76,10C36.08,33,43.37,36.17,42.79,37.11Z"/></g></g></svg>