<svg xmlns="http://www.w3.org/2000/svg" viewBox="0 0 51.02 51.02"><defs><style>.cls-1{fill:#5e6257}</style></defs><g id="Слой_2" data-name="Слой 2"><g id="Слой_1-2" data-name="Слой 1"><path class="cls-1" d="M34.53 9.58h-18a6.92 6.92 0 00-6.91 6.91v18a6.92 6.92 0 006.91 6.91h18a6.92 6.92 0 006.91-6.91v-18a6.92 6.92 0 00-6.91-6.91zm-3.1.85c5 4.19 1.76 6.35 1.55 6.19 0-1.66-.08-2.28-.79-3.11.2 1.64.62 2.66-.15 3.78-2.04-.29-1.97-4.53-.61-6.86zm-5.92 23.94a8.86 8.86 0 118.86-8.86 8.87 8.87 0 01-8.86 8.86zm8.27-16.94a4.48 4.48 0 012.61-.53c-.55-.47-1.46-.28-2.51-.06.85-1.14 2.18-2.22 5.07.16-1.2 1.42-3.89 2-5.17.43z"/><path class="cls-1" d="M25.51 18.6a6.91 6.91 0 106.91 6.91 6.92 6.92 0 00-6.91-6.91z"/><path class="cls-1" d="M35.41 0h-19.8A15.61 15.61 0 000 15.61v19.8A15.61 15.61 0 0015.61 51h19.8A15.61 15.61 0 0051 35.41v-19.8A15.61 15.61 0 0035.41 0zm8 34.53a8.86 8.86 0 01-8.86 8.86h-18a8.87 8.87 0 01-8.86-8.86v-18a8.88 8.88 0 018.86-8.86h18a8.87 8.87 0 018.86 8.86z"/></g></g></svg>