<svg xmlns="http://www.w3.org/2000/svg" viewBox="0 0 54.02 54.02"><defs><style>.cls-2{fill:#5e6257}</style></defs><g id="Слой_2" data-name="Слой 2"><g id="Слой_1-2" data-name="Слой 1"><circle cx="27.01" cy="27.01" r="25.51" fill="none" stroke="#5c6157" stroke-miterlimit="10" stroke-width="3"/><path class="cls-2" d="M32.31 26.75c.23-2.55-1.43-3.85-3.3-6.41 2 .73 2.75 1.67 4.25 4.46.5.07 3.88-6.43-8.43-8.87-.09 5.07 3.76 12.15 7.48 10.82zM34.83 26.53c.37-2.71 1.58-5.78 8.68-4.46-.7 3.51-4.68 7-8.31 5.53.91-1.78 2.65-2.57 3.9-3.31-1.36-.29-2.71.88-4.27 2.24z"/><path class="cls-2" d="M28.54 33.94s-7.18-.4-9.7-9.17c2.26-1.86 4-3.85 1.59-7.71s-2.26-3.06-4.52-2.92-4.51.79-4.51 3.05 0 22.73 25.12 24.33a4.23 4.23 0 001.28-1.05c1.44-1.79 1.21-4.8 1.21-4.8a5.35 5.35 0 00-.54-3.08c-.56-.78-1.23-.5-3.45-1.29s-2.52-1.43-3.41-1.3-1.97.85-3.07 3.94z"/></g></g></svg>