<svg xmlns="http://www.w3.org/2000/svg" viewBox="0 0 54.02 54.02"><defs><style>.cls-1{fill:none;stroke:#5c6157;stroke-miterlimit:10;stroke-width:3px;}.cls-2{fill:#5e6257;}</style></defs><g id="Слой_2" data-name="Слой 2"><g id="Слой_1-2" data-name="Слой 1"><circle class="cls-1" cx="27.01" cy="27.01" r="25.51"/><path class="cls-2" d="M32.31,26.75c.23-2.55-1.43-3.85-3.3-6.41,2,.73,2.75,1.67,4.25,4.46.5.07,3.88-6.43-8.43-8.87C24.74,21,28.59,28.08,32.31,26.75Z"/><path class="cls-2" d="M34.83,26.53c.37-2.71,1.58-5.78,8.68-4.46-.7,3.51-4.68,7-8.31,5.53.91-1.78,2.65-2.57,3.9-3.31C37.74,24,36.39,25.17,34.83,26.53Z"/><path class="cls-2" d="M28.54,33.94s-7.18-.4-9.7-9.17c2.26-1.86,4-3.85,1.59-7.71S18.17,14,15.91,14.14s-4.51.79-4.51,3.05,0,22.73,25.12,24.33a4.23,4.23,0,0,0,1.28-1.05c1.44-1.79,1.21-4.8,1.21-4.8h0a5.35,5.35,0,0,0-.54-3.08c-.56-.78-1.23-.5-3.45-1.29S32.5,29.87,31.61,30,29.64,30.85,28.54,33.94Z"/></g></g></svg>