<svg xmlns="http://www.w3.org/2000/svg" viewBox="0 0 51.02 51.02"><g data-name="Слой 2"><path d="M35.41 0h-19.8A15.61 15.61 0 000 15.61v19.8A15.61 15.61 0 0015.61 51h19.8A15.61 15.61 0 0051 35.41v-19.8A15.61 15.61 0 0035.41 0zm-.12 23.54c-2.7 8.21-1.23 15.21-3.62 15.89s-6.1-6-8.53-4.86a8.63 8.63 0 00-1.45 1.53c-1.74 2-2.25 3.07-2.56 2.95s.11-1.57.09-3.88a16.61 16.61 0 00-.33-3.2c1-.77 2.54-1.92 4.25-3.42 3.56-3.1 7.83-7.45 7.4-8s-3.49 1.58-6.24 3.32c-1.67 1.05-2.36 1.58-4.55 2.92-3.13 1.9-4 2.21-4.84 2.39a9.61 9.61 0 01-4.71-.27 3.35 3.35 0 01-1.64-2.17c-.73-4.35 11-10.75 21.3-13a44.5 44.5 0 0111.34-.92 32.88 32.88 0 00-5.91 10.72z" fill="#5e6257" data-name="Слой 1"/></g></svg>