<svg xmlns="http://www.w3.org/2000/svg" viewBox="0 0 51.02 51.02"><g data-name="Слой 2"><path d="M35.41 0h-19.8A15.61 15.61 0 000 15.61v19.8A15.61 15.61 0 0015.61 51h19.8A15.61 15.61 0 0051 35.41v-19.8A15.61 15.61 0 0035.41 0zM16.64 38.45C1.69 20 14.76 14.51 15.4 15.22a17.71 17.71 0 00-.69 8.39A17.13 17.13 0 0016 28c.22-1.64.5-3.34.84-5.09a89.46 89.46 0 012.36-9.4c7.12 2.54 3.93 17.56-2.56 24.94zm26.15-1.34c-.46.74-5.69-.18-9.64-3.51-1.16-1-1.93-1.94-2.92-1.78-1.56.26-2.4 3.11-2.88 5.61a26.41 26.41 0 01-2.35-9.9 27.16 27.16 0 014-14.95 48.51 48.51 0 011.39 10.69v3.12A13.72 13.72 0 0133 22.07a14.51 14.51 0 018.24-4.35c-3.11 2.64-6.17 6.17-5.76 10 .6 5.28 7.89 8.45 7.31 9.39z" fill="#5e6257" data-name="Слой 1"/></g></svg>